<svg xmlns="http://www.w3.org/2000/svg" viewBox="0 0 1600 1000" width="1600" height="1000" role="img">
  <defs>
    <linearGradient id="ground" x1="0" y1="0" x2="0.6" y2="1">
      <stop offset="0" stop-color="#f7f2ea"/>
      <stop offset="1" stop-color="#e8ddcd"/>
    </linearGradient>
    <radialGradient id="halo" cx="57%" cy="29%" r="62%">
      <stop offset="0" stop-color="#ffffff" stop-opacity="0.9"/>
      <stop offset="1" stop-color="#ffffff" stop-opacity="0"/>
    </radialGradient>
    <pattern id="grain" width="18" height="18" patternUnits="userSpaceOnUse">
      <circle cx="2" cy="2" r="1" fill="#7a6b57" opacity="0.06"/>
      <circle cx="11" cy="10" r="1" fill="#7a6b57" opacity="0.06"/>
    </pattern>
  </defs>
  <rect width="1600" height="1000" fill="url(#ground)"/>
  <rect width="1600" height="1000" fill="url(#grain)"/>
  <rect width="1600" height="1000" fill="url(#halo)"/>
  <circle cx="800" cy="500" r="384.4" fill="#ffffff" opacity="0.42"/>
  <circle cx="800" cy="500" r="421.6" fill="none" stroke="#b99a62" stroke-width="1" opacity="0.5"/>
  <g transform="translate(490 190) scale(3.1) rotate(-4 100 100)">
    
    <path d="M78 96c-8 20-10 40 0 56 8 12 36 12 44 0 10-16 8-36 0-56-6-14-38-14-44 0Z" fill="#f7f2ea" stroke="#7a6b57" stroke-width="2.4"/>
    <path d="M78 96h44" stroke="#7a6b57" stroke-width="2.2"/>
    <path d="M100 96V44" stroke="#b99a62" stroke-width="2.4" stroke-linecap="round"/>
    <path d="M100 62c-16-6-24-18-22-28 12-2 22 8 22 20" fill="#e8ddcd" stroke="#7a6b57" stroke-width="2"/>
    <path d="M100 52c14-8 24-6 28 2-8 10-20 12-28 6" fill="#e8ddcd" stroke="#7a6b57" stroke-width="2"/>
    <circle cx="100" cy="38" r="8" fill="#b99a62"/>
  </g>
</svg>
