<svg xmlns="http://www.w3.org/2000/svg" viewBox="0 0 1000 1250" width="1000" height="1250" role="img">
  <defs>
    <linearGradient id="ground" x1="0" y1="0" x2="0.6" y2="1">
      <stop offset="0" stop-color="#f7f2ea"/>
      <stop offset="1" stop-color="#e8ddcd"/>
    </linearGradient>
    <radialGradient id="halo" cx="35%" cy="46%" r="62%">
      <stop offset="0" stop-color="#ffffff" stop-opacity="0.9"/>
      <stop offset="1" stop-color="#ffffff" stop-opacity="0"/>
    </radialGradient>
    <pattern id="grain" width="18" height="18" patternUnits="userSpaceOnUse">
      <circle cx="2" cy="2" r="1" fill="#7a6b57" opacity="0.06"/>
      <circle cx="11" cy="10" r="1" fill="#7a6b57" opacity="0.06"/>
    </pattern>
  </defs>
  <rect width="1000" height="1250" fill="url(#ground)"/>
  <rect width="1000" height="1250" fill="url(#grain)"/>
  <rect width="1000" height="1250" fill="url(#halo)"/>
  <circle cx="500" cy="625" r="384.4" fill="#ffffff" opacity="0.42"/>
  <circle cx="500" cy="625" r="421.6" fill="none" stroke="#b99a62" stroke-width="1" opacity="0.5"/>
  <g transform="translate(190 315) scale(3.1) rotate(-1 100 100)">
    
    <path d="M100 162c-44-28-62-52-62-76a34 34 0 0 1 62-19 34 34 0 0 1 62 19c0 24-18 48-62 76Z" fill="#f7f2ea" stroke="#7a6b57" stroke-width="2.4"/>
    <path d="M100 140c-30-20-44-38-44-54a22 22 0 0 1 44-8 22 22 0 0 1 44 8c0 16-14 34-44 54Z" fill="none" stroke="#b99a62" stroke-width="2"/>
    <circle cx="76" cy="76" r="4" fill="#b99a62"/>
  </g>
</svg>
