<svg xmlns="http://www.w3.org/2000/svg" viewBox="0 0 1000 1250" width="1000" height="1250" role="img">
  <defs>
    <linearGradient id="ground" x1="0" y1="0" x2="0.6" y2="1">
      <stop offset="0" stop-color="#edf1e9"/>
      <stop offset="1" stop-color="#cfd8c7"/>
    </linearGradient>
    <radialGradient id="halo" cx="66%" cy="50%" r="62%">
      <stop offset="0" stop-color="#ffffff" stop-opacity="0.9"/>
      <stop offset="1" stop-color="#ffffff" stop-opacity="0"/>
    </radialGradient>
    <pattern id="grain" width="18" height="18" patternUnits="userSpaceOnUse">
      <circle cx="2" cy="2" r="1" fill="#6c7b62" opacity="0.06"/>
      <circle cx="11" cy="10" r="1" fill="#6c7b62" opacity="0.06"/>
    </pattern>
  </defs>
  <rect width="1000" height="1250" fill="url(#ground)"/>
  <rect width="1000" height="1250" fill="url(#grain)"/>
  <rect width="1000" height="1250" fill="url(#halo)"/>
  <circle cx="500" cy="625" r="384.4" fill="#ffffff" opacity="0.42"/>
  <circle cx="500" cy="625" r="421.6" fill="none" stroke="#aab5a0" stroke-width="1" opacity="0.5"/>
  <g transform="translate(190 315) scale(3.1) rotate(-1 100 100)">
    
    <rect x="30" y="52" width="140" height="104" rx="14" fill="#edf1e9" stroke="#6c7b62" stroke-width="2.4"/>
    <rect x="42" y="64" width="116" height="80" rx="8" fill="none" stroke="#aab5a0" stroke-width="1.8"/>
    <path d="M62 96c10-14 22-14 30 0s20 14 30 0 22-14 16 4" fill="none" stroke="#6c7b62" stroke-width="3" stroke-linecap="round"/>
    <path d="M66 118h68" stroke="#aab5a0" stroke-width="2.4" stroke-linecap="round"/>
    <path d="M80 130h40" stroke="#aab5a0" stroke-width="2.4" stroke-linecap="round"/>
    <circle cx="100" cy="42" r="6" fill="none" stroke="#6c7b62" stroke-width="2.2"/>
  </g>
</svg>
