<svg xmlns="http://www.w3.org/2000/svg" viewBox="0 0 1000 900" width="1000" height="900" role="img">
  <defs>
    <linearGradient id="ground" x1="0" y1="0" x2="0.6" y2="1">
      <stop offset="0" stop-color="#f3e7e6"/>
      <stop offset="1" stop-color="#dcc3c3"/>
    </linearGradient>
    <radialGradient id="halo" cx="56%" cy="29%" r="62%">
      <stop offset="0" stop-color="#ffffff" stop-opacity="0.9"/>
      <stop offset="1" stop-color="#ffffff" stop-opacity="0"/>
    </radialGradient>
    <pattern id="grain" width="18" height="18" patternUnits="userSpaceOnUse">
      <circle cx="2" cy="2" r="1" fill="#713f46" opacity="0.06"/>
      <circle cx="11" cy="10" r="1" fill="#713f46" opacity="0.06"/>
    </pattern>
  </defs>
  <rect width="1000" height="900" fill="url(#ground)"/>
  <rect width="1000" height="900" fill="url(#grain)"/>
  <rect width="1000" height="900" fill="url(#halo)"/>
  <circle cx="500" cy="450" r="345.96" fill="#ffffff" opacity="0.42"/>
  <circle cx="500" cy="450" r="379.44000000000005" fill="none" stroke="#8f5860" stroke-width="1" opacity="0.5"/>
  <g transform="translate(221 171) scale(2.79) rotate(-2 100 100)">
    
    <rect x="42" y="82" width="116" height="80" rx="10" fill="#f3e7e6" stroke="#713f46" stroke-width="2.4"/>
    <rect x="32" y="62" width="136" height="30" rx="8" fill="#dcc3c3" stroke="#713f46" stroke-width="2.4"/>
    <path d="M100 62v100" stroke="#8f5860" stroke-width="7" stroke-linecap="round"/>
    <path d="M100 62C82 46 62 42 60 54c-2 11 20 12 40 8" fill="none" stroke="#8f5860" stroke-width="3.4" stroke-linecap="round"/>
    <path d="M100 62c18-16 38-20 40-8 2 11-20 12-40 8" fill="none" stroke="#8f5860" stroke-width="3.4" stroke-linecap="round"/>
    <circle cx="100" cy="62" r="5" fill="#8f5860"/>
  </g>
</svg>
