<svg xmlns="http://www.w3.org/2000/svg" viewBox="0 0 900 700" width="900" height="700" role="img">
  <defs>
    <linearGradient id="ground" x1="0" y1="0" x2="0.6" y2="1">
      <stop offset="0" stop-color="#edf1e9"/>
      <stop offset="1" stop-color="#cfd8c7"/>
    </linearGradient>
    <radialGradient id="halo" cx="52%" cy="33%" r="62%">
      <stop offset="0" stop-color="#ffffff" stop-opacity="0.9"/>
      <stop offset="1" stop-color="#ffffff" stop-opacity="0"/>
    </radialGradient>
    <pattern id="grain" width="18" height="18" patternUnits="userSpaceOnUse">
      <circle cx="2" cy="2" r="1" fill="#6c7b62" opacity="0.06"/>
      <circle cx="11" cy="10" r="1" fill="#6c7b62" opacity="0.06"/>
    </pattern>
  </defs>
  <rect width="900" height="700" fill="url(#ground)"/>
  <rect width="900" height="700" fill="url(#grain)"/>
  <rect width="900" height="700" fill="url(#halo)"/>
  <circle cx="450" cy="350" r="269.08" fill="#ffffff" opacity="0.42"/>
  <circle cx="450" cy="350" r="295.12" fill="none" stroke="#aab5a0" stroke-width="1" opacity="0.5"/>
  <g transform="translate(233 133) scale(2.17) rotate(2 100 100)">
    
    <rect x="66" y="86" width="68" height="80" rx="12" fill="#edf1e9" stroke="#6c7b62" stroke-width="2.4"/>
    <path d="M66 104h68" stroke="#aab5a0" stroke-width="2"/>
    <path d="M84 138h32" stroke="#aab5a0" stroke-width="2.2" stroke-linecap="round"/>
    <path d="M100 86V72" stroke="#6c7b62" stroke-width="2.2" stroke-linecap="round"/>
    <path d="M100 34c14 16 20 26 20 36a20 20 0 0 1-40 0c0-10 6-20 20-36Z" fill="#cfd8c7" stroke="#6c7b62" stroke-width="2.2"/>
    <path d="M100 52c6 8 8 13 8 18a8 8 0 0 1-16 0c0-5 2-10 8-18Z" fill="#aab5a0"/>
  </g>
</svg>
